<svg xmlns="http://www.w3.org/2000/svg" viewBox="0 0 120.62 119.5"><defs><style>.cls-1,.cls-2,.cls-3,.cls-4{fill:#ffbe00;stroke:#a1765e;}.cls-1{stroke-width:1.96px;}.cls-2{stroke-width:1.12px;}.cls-3{stroke-width:0.93px;}.cls-4{stroke-width:0.77px;}.cls-5{fill:none;stroke:#fff486;stroke-linecap:round;stroke-width:7.84px;}</style></defs><title>Asset 19</title>
<g id="Layer_2" data-name="Layer 2">
	<g id="Slide02">
		<path class="cls-2" d="M7.84,31.84a3,3,0,0,1,5.68.37,4.11,4.11,0,0,0,3.72,3.09,3,3,0,0,1,1.41,5.51,4.12,4.12,0,0,0-1.79,4.5,3,3,0,0,1-4.81,3A4.12,4.12,0,0,0,7.22,48,3,3,0,0,1,2.85,44.4a4.12,4.12,0,0,0-1.2-4.69,3,3,0,0,1,2.1-5.28A4.12,4.12,0,0,0,7.84,31.84Z"/>
	</g>
</g>
</svg>