<svg xmlns="http://www.w3.org/2000/svg" viewBox="0 0 120.62 119.5"><defs><style>.cls-1,.cls-2,.cls-3,.cls-4{fill:#ffbe00;stroke:#a1765e;}.cls-1{stroke-width:1.96px;}.cls-2{stroke-width:1.12px;}.cls-3{stroke-width:0.93px;}.cls-4{stroke-width:0.77px;}.cls-5{fill:none;stroke:#fff486;stroke-linecap:round;stroke-width:7.84px;}</style></defs><title>Asset 19</title>
<g id="Layer_2" data-name="Layer 2">
	<g id="Slide02">
		<path class="cls-4" d="M50.87,1a2.06,2.06,0,0,1,3.47,1.8,2.83,2.83,0,0,0,1.48,3,2,2,0,0,1-.64,3.85,2.83,2.83,0,0,0-2.36,2.33,2.05,2.05,0,0,1-3.86.59A2.83,2.83,0,0,0,46,11,2.05,2.05,0,0,1,44.26,7.5a2.83,2.83,0,0,0,.54-3.28,2.06,2.06,0,0,1,2.79-2.74A2.83,2.83,0,0,0,50.87,1Z"/>
	</g>
</g>
</svg>