<svg xmlns="http://www.w3.org/2000/svg" viewBox="0 0 120.62 119.5"><defs><style>.cls-1,.cls-2,.cls-3,.cls-4{fill:#ffbe00;stroke:#a1765e;}.cls-1{stroke-width:1.96px;}.cls-2{stroke-width:1.12px;}.cls-3{stroke-width:0.93px;}.cls-4{stroke-width:0.77px;}.cls-5{fill:none;stroke:#fff486;stroke-linecap:round;stroke-width:7.84px;}</style></defs><title>Asset 19</title>
<g id="Layer_2" data-name="Layer 2">
	<g id="Slide02">
		<path class="cls-2" d="M111.85,26.79a3,3,0,0,1,4.59,3.36,4.11,4.11,0,0,0,1.47,4.6,3,3,0,0,1-1.77,5.41A4.12,4.12,0,0,0,112.21,43a3,3,0,0,1-5.68,0,4.12,4.12,0,0,0-3.91-2.86,3,3,0,0,1-1.74-5.41,4.13,4.13,0,0,0,1.52-4.6A3,3,0,0,1,107,26.77,4.13,4.13,0,0,0,111.85,26.79Z"/>
	</g>
</g>
</svg>