<svg xmlns="http://www.w3.org/2000/svg" viewBox="0 0 120.62 119.5"><defs><style>.cls-1,.cls-2,.cls-3,.cls-4{fill:#ffbe00;stroke:#a1765e;}.cls-1{stroke-width:1.96px;}.cls-2{stroke-width:1.12px;}.cls-3{stroke-width:0.93px;}.cls-4{stroke-width:0.77px;}.cls-5{fill:none;stroke:#fff486;stroke-linecap:round;stroke-width:7.84px;}</style></defs><title>Asset 19</title>
<g id="Layer_2" data-name="Layer 2">
	<g id="Slide02">
		<path class="cls-3" d="M101,75.42a2.47,2.47,0,0,1,2.26,4.13,3.4,3.4,0,0,0-.5,4A2.47,2.47,0,0,1,99.54,87a3.42,3.42,0,0,0-3.94.75,2.48,2.48,0,0,1-4.26-2,3.4,3.4,0,0,0-1.92-3.51A2.47,2.47,0,0,1,90,77.52a3.42,3.42,0,0,0,2.74-2.92,2.47,2.47,0,0,1,4.62-.88A3.41,3.41,0,0,0,101,75.42Z"/>
	</g>
</g>
</svg>