<svg xmlns="http://www.w3.org/2000/svg" viewBox="0 0 120.62 119.5"><defs><style>.cls-1,.cls-2,.cls-3,.cls-4{fill:#ffbe00;stroke:#a1765e;}.cls-1{stroke-width:1.96px;}.cls-2{stroke-width:1.12px;}.cls-3{stroke-width:0.93px;}.cls-4{stroke-width:0.77px;}.cls-5{fill:none;stroke:#fff486;stroke-linecap:round;stroke-width:7.84px;}</style></defs><title>Asset 19</title>
<g id="Layer_2" data-name="Layer 2">
	<g id="Slide02">
		<path class="cls-1" d="M63.23,37a5.21,5.21,0,0,1,9.35,3.3,7.17,7.17,0,0,0,4.78,6.93,5.21,5.21,0,0,1-.24,9.91A7.19,7.19,0,0,0,72,63.85a5.2,5.2,0,0,1-9.49,2.83,7.2,7.2,0,0,0-7.95-2.8,5.21,5.21,0,0,1-5.63-8.16,7.18,7.18,0,0,0,.2-8.42,5.21,5.21,0,0,1,6-7.88A7.18,7.18,0,0,0,63.23,37Z"/>
	</g>
</g>
</svg>