<?xml version="1.0" encoding="UTF-8"?>
<svg id="lock" data-name="lock" xmlns="http://www.w3.org/2000/svg" xmlns:xlink="http://www.w3.org/1999/xlink" viewBox="0 0 43.24 57.89">
  <defs>
    <clipPath id="clippath">
      <rect fill= "none"  x="-927.3" y="166.92" width="1920" height="1080"/>
    </clipPath>
  </defs>
  <g clip-path= "url(#clippath)">
    <g>
      <path  fill= "#8da9c9" d="M-941.61,436.75H994.31V47.01H-941.61v389.74Z"/>
      <path fill= "#7d9ab7" d="M-941.61,316.52H994.31V47.01H-941.61v269.51Z"/>
    </g>
  </g>
  <g>
    <path fill="#b93838" stroke= "#000" stroke-width= ".3px" d="M29.95,13.69c-.02-4.03-2.92-7.39-6.71-8.11l-.37-.06c-.38-.05-.76-.08-1.14-.08h0c-.09,0-.19,0-.28,0-4.39.15-7.92,3.79-7.95,8.25v.03h0v.25s0,0,0,.01v12.69h-5.29v-12.68h0v-.32c0-.16,0-.32,0-.47l.02-.46c.24-3.39,1.73-6.54,4.21-8.89C14.57,1.84,17.25.59,20.11.25l.28-.03h.07c.08-.01.17-.02.25-.03.03,0,.05,0,.08,0,.08,0,.16,0,.24-.01.04,0,.08,0,.13,0,.06,0,.12,0,.18,0,.05,0,.11,0,.17,0h.11s.07,0,.07,0c0,0,.02,0,.02,0h.31s.02,0,.02,0c0,0,.01,0,.02,0h0s0,0,0,0c3.33.08,6.5,1.39,8.94,3.69,2.4,2.27,3.88,5.3,4.18,8.57l.03.32c.02.3.03.62.03.93v13h-5.29v-1.39l-.04-.04c-.13-.15-.24-.29-.28-.41-.02-.06-.02-.11-.02-.15,0-.03.02-.06.05-.1l.04-.04c.05-.06.13-.15.22-.27l.03-.04v-10.25h0v-.29Z"/>
    <path fill="#ff6d6d" stroke= "#000" stroke-width= ".3px" d="M28.05,13.69c-.02-4.03-2.91-7.39-6.71-8.11l-.38-.06c-.38-.05-.76-.08-1.14-.08h0c-.09,0-.18,0-.27,0-4.39.15-7.92,3.79-7.95,8.25v.03h0v.25h0v12.7h-5.29v-12.68h0v-.32c0-.16,0-.32,0-.47l.02-.46c.23-3.39,1.72-6.54,4.21-8.89C12.68,1.84,15.36.59,18.22.25l.28-.03h.07c.08-.01.17-.02.25-.03.02,0,.05,0,.08,0,.08,0,.15,0,.23-.01.04,0,.08,0,.13,0,.06,0,.12,0,.18,0,.05,0,.11,0,.17,0h.11s.07,0,.07,0c0,0,.01,0,.02,0h.31s.01,0,.01,0c0,0,.01,0,.02,0h0s0,0,0,0c3.34.08,6.5,1.39,8.94,3.69,2.41,2.27,3.88,5.3,4.19,8.57l.02.32c.02.3.04.62.04.93v13h-5.29v-1.39l-.04-.04c-.13-.15-.24-.29-.28-.41-.02-.06-.02-.11-.02-.15,0-.03.02-.06.05-.1l.04-.04c.06-.06.14-.15.22-.27l.03-.04v-10.25h0v-.29Z"/>
    <path d="M15.04,8.98l-2.14.3.62-.83.99-1.04,1.15-.79,1.46-.74,1.63-.4h1.38l-1,.4-1.58.74-1.34.96-1.16,1.4Z"/>
    <path fill="#b93838" stroke= "#000" stroke-width= ".3px" d="M37.65,20.6c3,0,5.42,2.52,5.43,5.53v26.15c0,1.39-.52,2.66-1.38,3.63-1,1.12-2.46,1.83-4.08,1.83H11.77c-3.01,0-5.45-2.44-5.45-5.46v-26.12c0-.55.08-1.07.23-1.57h0c.67-2.25,2.76-3.89,5.22-3.89h0l25.88-.1Z"/>
    <path fill="#ff6d6d" stroke= "#000" stroke-width= ".3px" d="M5.61,20.7h25.86c3.01,0,5.44,2.43,5.46,5.43v26.15c0,1.39-.53,2.66-1.38,3.63-1,1.12-2.46,1.83-4.08,1.83H5.61c-3.01,0-5.46-2.44-5.46-5.46v-26.12c0-.55.08-1.07.23-1.57H.38c.65-2.18,2.63-3.78,5-3.88h.23Z"/>
    <path d="M0,52.28v-26.13C0,25.6.08,25.05.24,24.54c.7-2.31,2.84-3.99,5.37-3.99h25.86c3.1,0,5.61,2.51,5.61,5.61h0v26.13c0,1.43-.54,2.74-1.42,3.73l-.2.21c-.98,1-2.33,1.62-3.83,1.67h-.15s0-.05,0-.05c1.65,0,3.13-.72,4.14-1.86.88-.98,1.41-2.27,1.41-3.69v-26.15h0c-.01-3.06-2.49-5.53-5.55-5.53H5.61c-2.51,0-4.63,1.67-5.32,3.95-.15.51-.24,1.04-.24,1.6v26.13c0,3.07,2.49,5.55,5.55,5.55v.06h-.29C2.36,57.73,0,55.28,0,52.28ZM31.47,57.83v.06H5.61v-.06h25.86Z"/>
    <path fill="#cc5757" d="M22.96,46.84c.15.83-.5,1.59-1.34,1.59h-5.01c-.84,0-1.48-.76-1.34-1.59l1.28-7.38c-1.53-.9-2.55-2.58-2.5-4.49.06-2.78,2.29-4.96,5.08-4.96.33,0,.67.03.99.1,2.33.46,4.09,2.51,4.09,4.98,0,1.87-1.01,3.5-2.51,4.38l1.28,7.38h0Z"/>
    <path d="M21.62,48.36v.07h-5.01v-.07h5.01ZM24.12,35.08c0-2.43-1.74-4.46-4.03-4.91-.31-.06-.64-.1-.97-.1-2.75,0-4.95,2.16-5.01,4.9-.04,1.89.96,3.54,2.47,4.43l.04.02v.05s-1.28,7.38-1.28,7.38c-.13.79.47,1.51,1.27,1.51v.07h-.08c-.77-.05-1.36-.74-1.27-1.51v-.08s1.29-7.38,1.29-7.38c-1.48-.87-2.49-2.47-2.51-4.31v-.18c.07-2.78,2.3-4.96,5.08-4.96h.25c.25.02.5.05.74.1,2.33.46,4.09,2.51,4.09,4.98v.17c-.07,1.79-1.05,3.35-2.51,4.2l1.28,7.38c.14.8-.46,1.54-1.26,1.58h-.08s0-.07,0-.07c.8,0,1.4-.72,1.27-1.51l-1.28-7.43.04-.02c1.48-.87,2.47-2.48,2.47-4.32Z"/>
    <path d="M22.96,46.84c.14.83-.5,1.59-1.34,1.59h-3.02c-.84,0-1.48-.76-1.34-1.59l1.27-7.38c-1.53-.9-2.55-2.58-2.5-4.49.05-2.44,1.78-4.42,4.08-4.87,2.33.46,4.09,2.51,4.09,4.98,0,1.87-1.01,3.5-2.51,4.38l1.28,7.38Z"/>
    <path d="M21.62,48.36v.07h-3.02v-.07h3.02ZM24.12,35.08c0-2.43-1.72-4.45-4.02-4.91-2.26.45-3.96,2.4-4.01,4.8-.04,1.89.96,3.54,2.47,4.43l.04.02-1.28,7.43c-.14.79.47,1.51,1.27,1.51v.07h-.08c-.78-.05-1.36-.74-1.27-1.51v-.08s1.28-7.38,1.28-7.38c-1.53-.9-2.55-2.58-2.5-4.49.05-2.44,1.78-4.42,4.08-4.87,2.33.46,4.09,2.51,4.09,4.98v.17c-.07,1.79-1.06,3.35-2.51,4.2l1.28,7.38c.14.83-.5,1.59-1.34,1.59v-.07c.8,0,1.4-.72,1.27-1.51l-1.28-7.38v-.05s.04-.02.04-.02c1.48-.87,2.47-2.48,2.47-4.32Z"/>
    <path d="M21.62,48.58h-5.01c-.45,0-.87-.19-1.15-.54-.29-.34-.41-.79-.33-1.23l1.26-7.28c-1.58-.97-2.53-2.71-2.49-4.57.06-2.86,2.36-5.11,5.23-5.11s5.23,2.34,5.23,5.23c0,1.81-.96,3.51-2.49,4.45l1.25,7.28c.08.44-.04.88-.33,1.23-.28.34-.7.54-1.15.54h0ZM19.11,30.16c-2.7,0-4.87,2.12-4.93,4.82-.04,1.78.9,3.45,2.43,4.36.05.03.08.09.07.15l-1.27,7.38c-.06.35.04.71.27.98.23.27.56.43.92.43h5.01c.36,0,.7-.16.93-.43.23-.27.33-.63.27-.98l-1.28-7.38c-.01-.06.02-.12.07-.15,1.5-.88,2.43-2.51,2.43-4.25,0-2.72-2.21-4.93-4.92-4.93h0Z"/>
    <path d="M24.27,35.08c0-2.84-2.33-5.16-5.16-5.16s-5.09,2.22-5.15,5.04c-.04,1.83.9,3.55,2.46,4.51l.04.02v.05s-1.26,7.28-1.26,7.28c-.07.42.04.85.31,1.17.27.32.68.51,1.1.51v.07h-.08c-.39-.02-.75-.19-1.01-.47l-.05-.06c-.27-.32-.39-.73-.34-1.14v-.08s1.26-7.28,1.26-7.28c-1.58-.97-2.53-2.71-2.49-4.57.06-2.86,2.36-5.11,5.22-5.11s5.23,2.34,5.23,5.23v.17c-.06,1.74-1,3.37-2.49,4.28l1.25,7.28c.08.44-.04.88-.33,1.23l-.05.06c-.28.3-.68.47-1.09.47h0s-5.01,0-5.01,0v-.07h4.98s.03,0,.03,0c.42,0,.83-.19,1.1-.51.25-.3.38-.7.33-1.09v-.08s-1.26-7.28-1.26-7.28v-.05s.03-.02.03-.02c1.52-.93,2.46-2.61,2.46-4.39ZM19.11,30.16c-2.7,0-4.86,2.12-4.92,4.82v.17c.02,1.72.94,3.31,2.43,4.19.05.03.08.09.07.15l-1.27,7.38-.02.13c-.02.31.08.61.28.85.2.24.48.39.79.42h.13s5.01,0,5.01,0c.31,0,.61-.12.83-.33l.09-.1c.2-.24.3-.54.28-.85v-.13s-1.29-7.38-1.29-7.38c-.01-.06.02-.12.07-.15,1.5-.88,2.43-2.51,2.43-4.25,0-2.63-2.07-4.79-4.68-4.92h-.25v-.07c2.75,0,4.99,2.24,4.99,4.99,0,1.76-.94,3.41-2.46,4.31h0s-.04.05-.04.08l1.28,7.38c.06.37-.04.75-.28,1.04-.24.29-.6.45-.97.45h-5.01c-.38,0-.73-.17-.97-.45-.24-.29-.34-.67-.28-1.04l1.27-7.38s0-.05-.02-.07l-.02-.02c-1.56-.92-2.5-2.61-2.47-4.42.06-2.74,2.26-4.88,4.99-4.88v.07ZM19.11,30.09v.07h0v-.07h0Z"/>
    <path d="M37.95,57.82h-5.21l.99-.61,1.57-1.08.91-1.09.44-1.08.38-1.47v-2.02h6.1v2.37l-.27,1.52-.82,1.28-1.05.93-1.28.82-1.75.43Z"/>
  </g>
</svg>