<svg xmlns="http://www.w3.org/2000/svg" viewBox="0 0 87.97 87.97">
	<g id="Layer_2">
		<g id="Layer_1-2">
			<circle fill="#33c5f0" fill-opacity="0.8" cx="43.98" cy="43.98" r="43.98"/>
			<path fill="#001064" d="M55,24.23a2.11,2.11,0,0,1,2.92-.6,24.53,24.53,0,0,1,0,41.05,2.11,2.11,0,1,1-2.31-3.52,20.33,20.33,0,0,0,0-34A2.11,2.11,0,0,1,55,24.23ZM37.64,28.07a2.09,2.09,0,0,1,3.56,1.47V58.76a2.09,2.09,0,0,1-3.56,1.47L29.9,52.5H21a2.08,2.08,0,0,1-2.08-2.09V37.89A2.09,2.09,0,0,1,21,35.8H29.9Zm12.7,3.14a2.08,2.08,0,0,1,2.88-.65,16.11,16.11,0,0,1,0,27.18A2.1,2.1,0,0,1,51,54.19a11.9,11.9,0,0,0,0-20.08A2.1,2.1,0,0,1,50.34,31.21Zm-4.82,7.08a2.08,2.08,0,0,1,2.83-.82,7.6,7.6,0,0,1,0,13.37,2.09,2.09,0,0,1-2-3.66,3.43,3.43,0,0,0,0-6.06A2.08,2.08,0,0,1,45.52,38.29Z"/>
		</g>
	</g>
</svg>