<svg width="18" height="16" viewBox="0 0 18 16" fill="currentColor" xmlns="http://www.w3.org/2000/svg">
<path d="M2 0.124969C0.896875 0.124969 0 1.13395 0 2.37497V13.625C0 14.866 0.896875 15.875 2 15.875H16C17.1031 15.875 18 14.866 18 13.625V2.37497C18 1.13395 17.1031 0.124969 16 0.124969H2ZM6.67188 5.09255L8.92188 10.155C9.10625 10.5734 8.95625 11.0797 8.5875 11.2871C8.21875 11.4945 7.76562 11.3258 7.58125 10.9109L7.2875 10.2465H4.71562L4.42188 10.9109C4.2375 11.3293 3.7875 11.498 3.41563 11.2871C3.04375 11.0761 2.89375 10.5734 3.08125 10.155L5.33125 5.09255C5.45938 4.80778 5.71875 4.62497 6.00313 4.62497C6.2875 4.62497 6.54688 4.80427 6.675 5.09255H6.67188ZM6.65938 8.8402L6 7.35661L5.34062 8.8402H6.65938ZM9.5 5.46872C9.5 5.00114 9.83438 4.62497 10.25 4.62497H12C13.6562 4.62497 15 6.13669 15 7.99997C15 9.86325 13.6562 11.375 12 11.375H10.25C9.83438 11.375 9.5 10.9988 9.5 10.5312V5.46872ZM11 6.31247V9.68747H12C12.8281 9.68747 13.5 8.93161 13.5 7.99997C13.5 7.06833 12.8281 6.31247 12 6.31247H11Z"/>
</svg>
