<?xml version="1.0" encoding="UTF-8"?>
<svg id="Layer_1" xmlns="http://www.w3.org/2000/svg" version="1.1" viewBox="0 0 81 81">
  <circle fill="#99e2f7" stroke="#fff" stroke-miterlimit="10" stroke-width="6px" cx="40.5" cy="40.5" r="37.5"/>
  <path fill="#006e8e" d="M49.9,23.7c.5-.8,1.7-1.1,2.5-.5,5.9,3.9,9.5,10.4,9.5,17.5s-3.5,13.6-9.5,17.5c-.9.6-2,.3-2.5-.5-.5-.8-.3-1.9.5-2.5,4.9-3.2,7.8-8.6,7.8-14.5,0-5.9-2.9-11.3-7.8-14.5-.8-.5-1.1-1.7-.5-2.5ZM35.1,26.9c1.1-1.1,3-.3,3,1.3v24.9c0,1.6-1.9,2.4-3,1.3l-6.6-6.6h-7.6c-1,0-1.8-.8-1.8-1.8v-10.7c0-1,.8-1.8,1.8-1.8h7.6l6.6-6.6ZM45.9,29.6c.5-.8,1.6-1.1,2.5-.6,4,2.5,6.4,6.9,6.4,11.6s-2.4,9-6.4,11.6c-.9.6-2,.2-2.5-.6-.5-.8-.3-1.9.5-2.5,2.9-1.9,4.7-5.1,4.7-8.6,0-3.5-1.8-6.7-4.7-8.6-.8-.5-1.1-1.6-.5-2.5ZM41.8,35.6c.5-.9,1.6-1.2,2.4-.7,2.1,1.2,3.4,3.3,3.4,5.7,0,2.4-1.3,4.5-3.4,5.7-.9.5-1.9.2-2.4-.7-.5-.9-.2-1.9.7-2.4,1-.5,1.6-1.5,1.6-2.6s-.6-2.1-1.6-2.6c-.9-.5-1.2-1.6-.7-2.4Z"/>
</svg>