<?xml version="1.0" encoding="UTF-8"?>
<svg id="goToTOC" data-name="goToTOC" xmlns="http://www.w3.org/2000/svg" viewBox="0 0 79.85 79.85">
  <title>back_btn</title>
  <circle fill="#D4EBC6" stroke="#fff" strokeMiterlimit="10" strokeWidth="4.81" cx="39.92" cy="39.92" r="37.52"/>
  <path fill="#2D4C1A" d="M42.55,54.16,40.81,55.9a1.88,1.88,0,0,1-2.66,0L22.9,40.66a1.88,1.88,0,0,1,0-2.66L38.15,22.74a1.88,1.88,0,0,1,2.66,0l1.74,1.74a1.88,1.88,0,0,1,0,2.69l-9.46,9H55.62a1.88,1.88,0,0,1,1.88,1.88v2.51a1.88,1.88,0,0,1-1.88,1.88H33.07l9.46,9A1.87,1.87,0,0,1,42.55,54.16Z"/>
</svg>




