<svg width="21" height="16" viewBox="0 0 21 16" fill="currentColor" xmlns="http://www.w3.org/2000/svg">
    <path d="M0 2.24997C0 1.00895 1.00898 -3.05176e-05 2.25 -3.05176e-05H18C19.241 -3.05176e-05 20.25 1.00895 20.25 2.24997V13.5C20.25 14.741 19.241 15.75 18 15.75H2.25C1.00898 15.75 0 14.741 0 13.5V2.24997ZM7.03125 6.18747C7.53047 6.18747 7.98047 6.40192 8.28984 6.74997C8.59922 7.09802 9.13359 7.12614 9.48164 6.81677C9.82969 6.50739 9.85781 5.97302 9.54844 5.62497C8.9332 4.93591 8.0332 4.49997 7.03477 4.49997C5.17148 4.49997 3.65977 6.01169 3.65977 7.87497C3.65977 9.73825 5.17148 11.25 7.03477 11.25C8.0332 11.25 8.9332 10.814 9.54844 10.125C9.85781 9.77692 9.82969 9.24606 9.48164 8.93317C9.13359 8.62028 8.60273 8.65192 8.28984 8.99997C7.98047 9.34802 7.53047 9.56247 7.03125 9.56247C6.09961 9.56247 5.34375 8.80661 5.34375 7.87497C5.34375 6.94333 6.09961 6.18747 7.03125 6.18747ZM12.0938 7.87497C12.0938 6.94333 12.8496 6.18747 13.7812 6.18747C14.2805 6.18747 14.7305 6.40192 15.0398 6.74997C15.3492 7.09802 15.8836 7.12614 16.2316 6.81677C16.5797 6.50739 16.6078 5.97302 16.2984 5.62497C15.6832 4.93591 14.7832 4.49997 13.7848 4.49997C11.9215 4.49997 10.4098 6.01169 10.4098 7.87497C10.4098 9.73825 11.9215 11.25 13.7848 11.25C14.7832 11.25 15.6832 10.814 16.2984 10.125C16.6078 9.77692 16.5797 9.24606 16.2316 8.93317C15.8836 8.62028 15.3527 8.65192 15.0398 8.99997C14.7305 9.34802 14.2805 9.56247 13.7812 9.56247C12.8496 9.56247 12.0938 8.80661 12.0938 7.87497Z" />
</svg>

