<svg width="32" height="32" viewBox="0 0 32 32" fill="currentColor" xmlns="http://www.w3.org/2000/svg">
    <path fill-rule="evenodd" clip-rule="evenodd" d="M19.75 13.75L22.8536 10.6464C23.0488 10.4512 23.0488 10.1346 22.8536 9.93934L22.0607 9.14644C21.8654 8.95119 21.5488 8.95119 21.3536 9.14644L18.25 12.25L17.2788 11.2197C16.8063 10.7472 16 11.0818 16 11.75V15.25C16 15.6642 16.3343 16 16.7485 16H20.2485C20.9167 16 21.2513 15.1922 20.7788 14.7197L19.75 13.75ZM12.25 18.25L9.14644 21.3536C8.95119 21.5488 8.95119 21.8654 9.14644 22.0607L9.93934 22.8536C10.1346 23.0488 10.4512 23.0488 10.6464 22.8536L13.75 19.75L14.7212 20.7803C15.1937 21.2528 16 20.9182 16 20.25V16.75C16 16.3358 15.6657 16 15.2515 16H11.7515C11.0833 16 10.7487 16.8078 11.2212 17.2803L12.25 18.25Z"/>
</svg>
