<svg width="24" height="24" viewBox="0 0 24 24" fill="none" xmlns="http://www.w3.org/2000/svg">
<g>
<path d="M10.5 24C8.84531 24 7.5 22.6547 7.5 21V10.5C7.5 8.84531 8.84531 7.5 10.5 7.5H21C22.6547 7.5 24 8.84531 24 10.5V21C24 22.6547 22.6547 24 21 24H10.5ZM3 16.5C1.34531 16.5 0 15.1547 0 13.5V3C0 1.34531 1.34531 0 3 0H13.5C15.1547 0 16.5 1.34531 16.5 3V6H14.25V3C14.25 2.5875 13.9125 2.25 13.5 2.25H3C2.5875 2.25 2.25 2.5875 2.25 3V13.5C2.25 13.9125 2.5875 14.25 3 14.25H6V16.5H3Z" fill="#9198A3"/>
</g>
</svg>
