<svg id="hintselected" data-name="Hint Selected Button" xmlns="http://www.w3.org/2000/svg" xmlns:xlink="http://www.w3.org/1999/xlink" viewBox="0 0 45 45"><defs><style>.path1,.path2{fill:none;}.path3{opacity:0.95;}.path4{clip-path:url(#hintSelectedIcon);}.path5{fill:#b459bd;}.path2{stroke:#f6ebf7;stroke-miterlimit:10;}.path6{fill:#f6ebf7;}</style><clipPath id="hintSelectedIcon"><rect class="path1" x="0.5" y="0.5" width="44" height="44"/></clipPath></defs><g class="path3"><g class="path4"><path class="path5" d="M39.5,44.5H5.5a5,5,0,0,1-5-5V5.5a5,5,0,0,1,5-5h34a5,5,0,0,1,5,5v34a5,5,0,0,1-5,5"/></g></g><rect class="path2" x="0.5" y="0.5" width="44" height="44" rx="5" ry="5"/><path class="path6" d="M15.83,28.17a6.57,6.57,0,0,1,1.83,5.13v3.53a3.3,3.3,0,0,0,3.3,3.3H24a3.3,3.3,0,0,0,3.3-3.3V33.42a6.49,6.49,0,0,1,2-5c1.12-1.36,3.59-4.12,3.28-8.38a9.92,9.92,0,0,0-19.82.61c-.05,4,2.63,7,3.05,7.53M24,39.33H21a2.5,2.5,0,0,1-2.47-2.1h8A2.5,2.5,0,0,1,24,39.33m2.5-2.9H18.46v-.86h8.08Zm0-1.66H18.46v-.86l8.08.1Zm-3.15-23.1a9.15,9.15,0,0,1,8.42,8.42c.29,4-2.62,7.24-3.1,7.82a7.14,7.14,0,0,0-2.15,5.31l-8.08-.1a7.29,7.29,0,0,0-2-5.43c-.39-.51-.83-1.09-1.33-1.82a9.13,9.13,0,0,1,8.25-14.2"/><path class="path6" d="M22.5,8.72a.4.4,0,0,0,.4-.4V5.27a.4.4,0,1,0-.8,0V8.32a.4.4,0,0,0,.4.4"/><path class="path6" d="M16.92,9.53a.4.4,0,0,0,.36.24c.05,0,.54-.17.36-.56L16.41,6.42a.4.4,0,0,0-.73.33Z"/><path class="path6" d="M12.68,12.75a.4.4,0,1,0,.53-.59l-2.27-2a.4.4,0,1,0-.53.59Z"/><path class="path6" d="M7.22,16.47s3,1,3,1a.4.4,0,0,0,.12-.78l-2.9-.94a.4.4,0,0,0-.25.76"/><path class="path6" d="M6.6,23l3.08-.32a.4.4,0,0,0-.08-.79l-3,.32a.4.4,0,0,0,0,.8"/><path class="path6" d="M11.57,27.2a.4.4,0,0,0-.55-.15L8.38,28.58a.4.4,0,0,0-.15.55.39.39,0,0,0,.55.15l2.64-1.53a.4.4,0,0,0,.15-.55"/><path class="path6" d="M27.55,9.74a.41.41,0,0,0,.53-.2l1.24-2.79a.4.4,0,1,0-.73-.32L27.35,9.21a.4.4,0,0,0,.2.53"/><path class="path6" d="M32.32,12.75l2.27-2a.4.4,0,1,0-.53-.59l-2.27,2a.4.4,0,0,0,0,.56.4.4,0,0,0,.56,0"/><path class="path6" d="M34.38,17.16a.4.4,0,0,0,.38.28s3-1,3-1a.4.4,0,1,0-.25-.76l-2.9.94a.4.4,0,0,0-.26.5"/><path class="path6" d="M35,22.28a.4.4,0,0,0,.35.44L38.4,23a.4.4,0,0,0,0-.8l-3-.32a.4.4,0,0,0-.44.35"/><path class="path6" d="M36.76,29.13a.41.41,0,0,0-.15-.55L34,27.05a.4.4,0,1,0-.4.69l2.64,1.53a.4.4,0,0,0,.55-.15"/><polygon class="path6" points="25.16 19.13 23.35 19.69 24.79 15.95 19.95 22.21 21.6 21.75 19.43 26.01 25.16 19.13"/></svg>


