<?xml version="1.0" encoding="UTF-8"?>
<svg id="Slide02" xmlns="http://www.w3.org/2000/svg" xmlns:xlink="http://www.w3.org/1999/xlink" viewBox="0 0 40.21 46.68">
  <defs>
    <clipPath id="clippath">
      <rect  fill= "none" x="-793.56" y="123.84" width="1920" height="1079.32"/>
    </clipPath>
    <clipPath id="clippath-1">
      <rect  fill= "none" x="-1001.74" y="-137.21" width="2336.36" height="1683.01"/>
    </clipPath>
    <clipPath id="clippath-2">
      <rect  fill= "none" x="-793.56" y="-1300.84" width="1920" height="1080"/>
    </clipPath>
  </defs>
  <g clip-path="url(#clippath)">
    <g clip-path= "url(#clippath-1)">
      <g>
        <rect  fill="#17ffff" x="-1031.74" y="-137.21" width="2336.36" height="1683.01"/>
        <path fill= "#f6dbaa" d="M1314.08-191.99H-1092.87V236.73H1314.08V-191.99Z"/>
        <path fill= "#efc899" d="M1609.1-211.73l-.62-1.68-294.37,106.91h-263.35l225.42-105.28-.76-1.61-228.89,106.89h-264.34l161.13-105.33-.98-1.49-163.41,106.84h-265.24l96.81-105.49-1.31-1.21-97.9,106.68H245.38l32.37-105.82-1.71-.52-32.54,106.34H-22.72l-32.51-106.34-1.71.52L-24.56-106.5h-265.94l-97.9-106.68-1.3,1.21,96.81,105.49h-265.25l-163.38-106.84-.97,1.49,161.13,105.35h-264.34l-228.91-106.91-.76,1.61,225.45,105.28h-263.35l-294.37-106.91-.62,1.68,289.77,105.25h-212.26v1.78h217.17L-829.29-8.69h-481.47v1.78h486.35l201.28,73.12h-687.63v1.78h692.54l140.28,50.94h-832.83v1.78H-473.04l94.72,34.41h-932.44v1.78H-373.41l86.19,31.31h-1023.53v1.78H-282.32l66.26,24.07h-1094.7v1.78H-211.14l66.64,24.21.62-1.68-62.05-22.53h66.17l51.77,24.17.76-1.61-48.31-22.55h67.14l36.88,24.12.98-1.49-34.6-22.63H2.9l22.01,23.98,1.3-1.21-20.9-22.77h68.76l7.23,23.62,1.71-.52-7.07-23.1h69.02l-7.07,23.1,1.71.52,7.23-23.62h68.76l-20.9,22.77,1.3,1.21,22.01-23.98h68.04l-34.6,22.63.98,1.49,36.88-24.12h67.14l-48.31,22.55.76,1.61,51.77-24.17h66.17l-62.05,22.53.62,1.68,66.64-24.21h967.52v-1.78H436.96l66.26-24.07h896.34v-1.78H508.11l86.19-31.31h805.24v-1.78h-800.36l94.72-34.41h705.62v-1.78h-700.73l140.28-50.94h560.45v-1.78h-555.53L1045.26-6.91h354.26v-1.78h-349.37l264.29-96h85.07v-1.78h-80.16l289.74-105.25ZM1042.74-104.72L837.17-8.71h-204.51l146.83-96h263.25ZM174.56,118.9H46.25l-15.58-50.94h159.47l-15.58,50.94ZM192.02,67.96h159.21l-46.77,50.94h-128.02l15.58-50.94ZM44.4,118.9H-83.62l-46.76-50.94H28.82l15.58,50.94ZM-86.04,118.9h-127.33l-77.93-50.94h158.5l46.77,50.94ZM-84.4,120.68l31.57,34.41h-105.18l-52.63-34.41h126.24ZM-82.01,120.68H44.93l10.53,34.41H-50.44l-31.57-34.41ZM46.8,120.68h127.22l-10.53,34.41H57.32l-10.53-34.41ZM175.89,120.68h126.93l-31.57,34.41h-105.9l10.53-34.41ZM305.23,120.68h126.24l-52.63,34.41h-105.18l31.57-34.41ZM306.87,118.9l46.77-50.94h158.5l-77.93,50.94h-127.34ZM355.25,66.18L422.35-6.94h204.31l-111.82,73.12h-159.59ZM352.84,66.18h-160.3L214.9-6.94h205.03l-67.09,73.12ZM190.68,66.18H30.12L7.76-6.94h205.29l-22.37,73.12ZM28.28,66.18h-160.3L-199.12-6.94H5.91l22.37,73.12ZM-134.45,66.18h-159.59L-405.86-6.94h204.32l67.09,73.12ZM-297.28,66.18h-158.69L-612.52-6.94h203.44l111.82,73.12h-.02ZM-294.55,67.96l77.93,50.94h-126.43l-109.1-50.94h157.62-.02ZM-213.92,120.68l52.63,34.41h-104.31l-73.69-34.41h125.37ZM-158.56,156.87l47.88,31.31h-84.05l-67.05-31.31h103.21ZM-155.32,156.87H-51.2l28.72,31.31h-84.95l-47.88-31.31ZM-48.78,156.87H56.02l9.58,31.31H-20.04l-28.72-31.31h-.02ZM57.87,156.87h105.09l-9.58,31.31h-85.93l-9.58-31.31ZM164.81,156.87h104.81l-28.72,31.31h-85.64l9.58-31.31h-.02ZM272.03,156.87h104.12l-47.88,31.31h-84.95l28.72-31.31ZM379.38,156.87h103.21l-67.05,31.31h-84.05l47.88-31.31ZM382.1,155.1l52.63-34.41h125.34l-73.69,34.41h-104.3.02ZM437.45,118.9l77.93-50.94h157.62l-109.09,50.94h-126.46ZM518.11,66.18L629.94-6.94h203.44l-156.56,73.12h-158.71ZM776.25-104.72L629.42-8.71h-205.41l88.11-96h264.15-.02ZM509.67-104.72L421.57-8.71h-206.12l29.36-96h264.86ZM242.98-104.72l-29.36,96H7.24l-29.36-96H243h-.02ZM-23.99-104.72L5.36-8.71h-206.12l-88.11-96H-23.99ZM-291.26-104.72L-203.15-8.71h-205.41l-146.83-96h264.15-.02ZM-558.66-104.72L-411.83-8.71h-204.51l-205.57-96h263.25ZM-1088.39-104.72h262.28L-620.54-8.71h-203.54l-264.3-96h-.02ZM-819.19-6.94h202.44l156.55,73.12h-157.71L-819.19-6.94ZM-613,67.96h156.62l109.1,50.94h-125.46l-140.28-50.94h.02ZM-467.83,120.68h124.37l73.69,34.41h-103.31l-94.72-34.41h-.02ZM-368.19,156.87h102.22l67.04,31.31h-83.08l-86.19-31.31ZM-210.83,214.03l-66.27-24.07h81.99l51.54,24.07h-67.26ZM-139.38,214.03l-51.54-24.07h82.96l36.81,24.07h-68.23ZM-67.89,214.03l-36.81-24.07H-20.84L1.24,214.03h-69.13ZM3.66,214.03l-22.08-24.07h84.55l7.35,24.07H3.66ZM75.35,214.03l-7.35-24.07h84.83l-7.35,24.07h-70.13ZM147.33,214.03l7.35-24.07h84.55l-22.08,24.07h-69.82ZM219.57,214.03l22.08-24.07h83.86l-36.81,24.07h-69.13ZM291.95,214.03l36.81-24.07h82.97l-51.54,24.07h-68.24ZM431.67,214.03h-67.26l51.54-24.07h81.98l-66.26,24.07ZM502.82,188.18h-83.08l67.05-31.31h102.24l-86.18,31.31h-.02ZM593.91,155.1h-103.31l73.69-34.41h124.37l-94.72,34.41h-.02ZM693.55,118.9h-125.46l109.09-50.94h156.62l-140.28,50.94h.02ZM838.74,66.18h-157.72L837.58-6.94h202.44l-201.28,73.12ZM1044.91-8.71h-203.54l205.57-96h262.28L1044.93-8.71h-.02Z"/>
      </g>
    </g>
  </g>
  <g clip-path=" url(#clippath-2)">
    <path fill= "#f7e2d5" d="M1419.1,63.01l-367.94-1064.11H-716.06l-116.79,360.65h-93.63l-1.91-11.46h-47.29l40.6,293.78-149.91,410.69,2504.09,10.46Z"/>
  </g>
  <g>
    <path fill="#665410" d="M28.33,11.27c-2.26-2.11-5.15-3.24-8.21-3.24-.29,0-.58,0-.86.03-5.81.4-10.6,5.07-11.15,10.85-.31,3.36.73,6.6,2.94,9.12,1.46,1.66,2.36,3.66,2.63,5.8h0c.03.29.05.68.07,1.15.02.4.36.72.77.72h11.2c.4,0,.74-.31.77-.72.04-.54.07-.94.1-1.15.23-2.18,1.09-4.14,2.48-5.68,2-2.22,3.1-5.09,3.1-8.07,0-3.32-1.4-6.54-3.83-8.81ZM16.66,30.76l2.69-7.7h-3.73l7.79-9.79-2.67,7.7h3.72l-7.8,9.79Z"/>
    <g>
      <path fill="#665410" d="M20.05,5.53c.25,0,.47-.1.64-.26.16-.16.26-.39.26-.64V.9c0-.25-.1-.47-.26-.64C20.52.1,20.29,0,20.05,0c-.25,0-.47.1-.64.26-.16.16-.26.39-.26.64v3.73c0,.25.1.47.26.64.16.16.39.26.64.26Z"/>
      <path fill="#665410" d="M30.33,9.37c.23,0,.46-.09.64-.26l2.63-2.63c.18-.18.26-.41.26-.64,0-.23-.09-.46-.26-.64-.17-.17-.4-.26-.64-.26-.24,0-.47.09-.64.26l-2.63,2.63c-.17.17-.26.4-.26.64,0,.24.09.47.26.64.18.18.41.26.64.26Z"/>
      <path fill="#665410" d="M39.95,18.03c-.16-.16-.39-.26-.64-.26h-3.73c-.25,0-.47.1-.64.26-.16.16-.26.39-.26.64,0,.25.1.47.26.64.16.16.39.26.64.26h3.73c.25,0,.47-.1.64-.26.16-.16.26-.39.26-.64,0-.25-.1-.47-.26-.64Z"/>
      <path fill="#665410" d="M9.3,9.1h0c.18.18.41.26.64.26.23,0,.46-.09.64-.26.17-.17.26-.4.26-.64,0-.24-.09-.47-.26-.64l-2.63-2.63c-.17-.17-.4-.26-.64-.26-.24,0-.47.09-.64.26-.18.18-.26.41-.26.64,0,.23.09.46.26.64l2.63,2.63Z"/>
      <path fill="#665410" d="M5.53,18.67c0-.25-.1-.47-.26-.64-.16-.16-.39-.26-.64-.26H.9c-.25,0-.47.1-.64.26C.1,18.19,0,18.42,0,18.67c0,.25.1.47.26.64.16.16.39.26.64.26h3.73c.25,0,.47-.1.64-.26.16-.16.26-.39.26-.64Z"/>
      <path fill="#665410" d="M32.43,29.7h0c-.17-.17-.4-.26-.64-.26-.22,0-.44.08-.6.23h0l-.03.03c-.17.17-.26.4-.26.64,0,.24.09.47.26.64l2.63,2.63c.18.18.41.26.64.26.23,0,.46-.09.64-.26.17-.17.26-.41.26-.63,0-.23-.09-.46-.26-.64l-2.63-2.63Z"/>
      <path fill="#665410" d="M9.01,29.72h0c-.17-.15-.39-.23-.6-.23-.23,0-.46.09-.64.26l-2.63,2.63c-.17.17-.26.4-.26.64,0,.24.09.47.26.64.17.17.4.26.64.26.24,0,.47-.09.64-.26l2.63-2.63c.18-.18.26-.41.26-.64,0-.23-.09-.46-.26-.64l-.03-.03Z"/>
    </g>
    <path fill="#665410" d="M23.81,44.3c.08-.14.12-.29.12-.44,0-.24-.1-.47-.27-.65h0c-.17-.17-.4-.27-.65-.27h-5.82s0,0,0,0c-.24,0-.48.09-.65.27-.17.17-.27.4-.27.65,0,.15.04.3.12.43h0c.67,1.45,2.12,2.38,3.71,2.38,1.59,0,3.04-.93,3.71-2.37h0Z"/>
    <path fill="#665410" d="M13.65,37.79s0,.06,0,.09c0,.23.08.45.24.62.17.19.42.3.69.3h11.08c.25,0,.48-.1.65-.27.17-.17.27-.41.27-.65,0-.25-.1-.48-.27-.65-.17-.17-.41-.27-.65-.27h-11.03c-.24,0-.47.08-.65.24-.18.15-.29.36-.32.59Z"/>
    <path fill="#665410" d="M24.64,40.01h-9.07s0,0,0,0c-.25,0-.48.1-.65.27-.17.17-.27.41-.27.65,0,.25.1.48.27.65.17.17.41.27.65.27h9.07c.25,0,.48-.1.65-.27.17-.17.27-.41.27-.65,0-.25-.1-.48-.27-.65-.17-.17-.41-.27-.65-.27Z"/>
  </g>
</svg>