<svg width="32" height="32" viewBox="0 0 32 32" fill="currentColor" xmlns="http://www.w3.org/2000/svg">
<path fill-rule="evenodd" clip-rule="evenodd" d="M19.25 11.25L16.3536 14.1464C16.1583 14.3417 16.1583 14.6583 16.3536 14.8535L17.1465 15.6464C17.3417 15.8417 17.6583 15.8417 17.8536 15.6464L20.75 12.75L21.7212 13.7803C22.1937 14.2528 23 13.9182 23 13.25V9.75C23 9.33578 22.6657 9 22.2515 9H18.7515C18.0833 9 17.7487 9.80784 18.2212 10.2803L19.25 11.25ZM12.75 20.75L15.6464 17.8536C15.8417 17.6583 15.8417 17.3417 15.6464 17.1465L14.8535 16.3536C14.6583 16.1583 14.3417 16.1583 14.1464 16.3536L11.25 19.25L10.2788 18.2197C9.80634 17.7472 9 18.0818 9 18.75V22.25C9 22.6642 9.33428 23 9.7485 23H13.2485C13.9167 23 14.2513 22.1922 13.7788 21.7197L12.75 20.75Z"/>
</svg>
