<?xml version="1.0" encoding="UTF-8"?>
<svg id="Layer_1" xmlns="http://www.w3.org/2000/svg" version="1.1" viewBox="0 0 110.31 120.21" width="60" height="75">
  <path fill= "#2D4C1A" d="M7.49,57.56c4.14,0,7.49,3.36,7.49,7.49,0,22.15,18.02,40.17,40.17,40.17,22.15,0,40.17-18.02,40.17-40.17s-18.02-40.17-40.17-40.17c-.18,0-.36,0-.55,0,2.08,2.08,2.83,5.28,1.64,8.17-1.19,2.89-3.99,4.64-6.93,4.64-.95,0-1.92-.18-2.85-.57l-17-7s-.05-.02-.08-.03c-.09-.04-.18-.08-.26-.12-.04-.02-.07-.03-.11-.05-.09-.04-.18-.09-.26-.13-.03-.02-.06-.03-.09-.05-.1-.05-.19-.11-.29-.17-.02-.01-.03-.02-.05-.03-.57-.36-1.09-.8-1.56-1.31,0-.01-.02-.02-.03-.03-.08-.09-.15-.17-.23-.26-.02-.02-.04-.04-.05-.07-.06-.08-.12-.16-.18-.24-.02-.03-.05-.06-.07-.1-.05-.07-.1-.14-.15-.22-.03-.04-.06-.08-.08-.13-.04-.07-.08-.13-.12-.2-.03-.05-.06-.1-.09-.15,0-.01-.02-.03-.03-.04-.03-.06-.06-.11-.09-.17-.02-.05-.05-.09-.07-.14-.05-.1-.1-.2-.14-.3,0-.02-.02-.04-.02-.05-.17-.39-.3-.79-.39-1.19,0,0,0,0,0-.01-.03-.13-.06-.26-.08-.39,0,0,0-.02,0-.02-.02-.13-.04-.26-.06-.38,0,0,0-.02,0-.03-.02-.13-.03-.26-.04-.39,0,0,0,0,0-.01-.03-.41-.02-.82.02-1.23,0-.02,0-.04,0-.06.01-.11.02-.21.04-.32,0-.04.01-.09.02-.13.01-.08.03-.17.05-.25.01-.05.02-.1.03-.15.02-.08.04-.15.06-.23.01-.05.03-.1.04-.16.02-.08.04-.15.07-.23.02-.05.03-.1.05-.14.03-.09.06-.18.1-.27.01-.03.02-.06.03-.09.05-.12.1-.25.16-.37,0,0,0-.02.01-.03.05-.11.11-.22.17-.34.01-.02.02-.04.03-.06.05-.1.11-.2.17-.3.01-.02.02-.04.03-.06.06-.1.13-.2.19-.3,0,0,0-.01.01-.02l10.76-15.71c2.34-3.41,7-4.29,10.42-1.95,2.91,1.99,3.97,5.66,2.78,8.82,1.68-.15,3.36-.23,5.05-.23,30.41,0,55.15,24.74,55.15,55.15,0,30.41-24.74,55.15-55.15,55.15C24.74,120.21,0,95.46,0,65.05c0-4.14,3.36-7.49,7.49-7.49Z"/>
</svg>