<svg width="18" height="18" viewBox="0 0 18 18" fill="none" xmlns="http://www.w3.org/2000/svg">
<path d="M11.6536 9L15.6337 5.01994C16.1221 4.53153 16.1221 3.73966 15.6337 3.25085L14.7491 2.36631C14.2607 1.8779 13.4689 1.8779 12.9801 2.36631L9 6.34636L5.01994 2.36631C4.53153 1.8779 3.73966 1.8779 3.25085 2.36631L2.36631 3.25085C1.8779 3.73926 1.8779 4.53114 2.36631 5.01994L6.34636 9L2.36631 12.9801C1.8779 13.4685 1.8779 14.2603 2.36631 14.7491L3.25085 15.6337C3.73926 16.1221 4.53153 16.1221 5.01994 15.6337L9 11.6536L12.9801 15.6337C13.4685 16.1221 14.2607 16.1221 14.7491 15.6337L15.6337 14.7491C16.1221 14.2607 16.1221 13.4689 15.6337 12.9801L11.6536 9Z" fill="#FF6D6D"/>
</svg>
